<?xml version="1.0" encoding="UTF-8"?>
<svg version="1.1" xmlns="http://www.w3.org/2000/svg" width="42" height="42">
<path d="M0 0 C2.9375 1.625 2.9375 1.625 5 4 C5.8125 7.25 5.8125 7.25 6 10 C8.475 10.495 8.475 10.495 11 11 C11.45317421 15.09262279 11.89855097 19.18601081 12.33666992 23.28027344 C12.48686246 24.67341068 12.63919622 26.0663188 12.79370117 27.45898438 C13.01521529 29.45902178 13.22843227 31.45997268 13.44140625 33.4609375 C13.57232666 34.66540527 13.70324707 35.86987305 13.83813477 37.11083984 C14 40 14 40 13 42 C1.78 42 -9.44 42 -21 42 C-21.88101381 37.59493097 -21.97358911 35.14554358 -21.44140625 30.82421875 C-21.30283203 29.66728516 -21.16425781 28.51035156 -21.02148438 27.31835938 C-20.79428711 25.52108398 -20.79428711 25.52108398 -20.5625 23.6875 C-20.41490234 22.46998047 -20.26730469 21.25246094 -20.11523438 19.99804688 C-19.75049445 16.99776686 -19.37850942 13.99856874 -19 11 C-17.35 10.67 -15.7 10.34 -14 10 C-13.938125 9.0925 -13.87625 8.185 -13.8125 7.25 C-13 4 -13 4 -10.9375 1.625 C-7.13489707 -0.47856758 -4.2534768 -0.84210248 0 0 Z M-10 6 C-10 7.32 -10 8.64 -10 10 C-6.04 10 -2.08 10 2 10 C1.50847518 5.13867505 1.50847518 5.13867505 -1 3 C-4.986446 2.47546763 -7.18965117 3.08556418 -10 6 Z M-15 13 C-16.49520072 14.49520072 -16.33477994 15.91798804 -16.5625 18 C-16.64628906 18.721875 -16.73007812 19.44375 -16.81640625 20.1875 C-17.07292259 24.11711204 -17 28.06202445 -17 32 C-8.42 32 0.16 32 9 32 C9.05658383 24.95290259 9.05658383 24.95290259 8.625 18 C8.55539063 17.2575 8.48578125 16.515 8.4140625 15.75 C8.27742188 15.1725 8.14078125 14.595 8 14 C7.34 13.67 6.68 13.34 6 13 C5.67 14.32 5.34 15.64 5 17 C4.34 17 3.68 17 3 17 C2.67 15.68 2.34 14.36 2 13 C-1.96 13 -5.92 13 -10 13 C-10.33 14.32 -10.66 15.64 -11 17 C-11.66 17 -12.32 17 -13 17 C-13.66 15.68 -14.32 14.36 -15 13 Z M-18 36 C-18 36.99 -18 37.98 -18 39 C-8.76 39 0.48 39 10 39 C10 38.01 10 37.02 10 36 C0.76 36 -8.48 36 -18 36 Z " fill="#000000" transform="translate(25,0)"/>
</svg>
