<svg width="9" height="10" viewBox="0 0 9 10" fill="none" xmlns="http://www.w3.org/2000/svg">
<path d="M0.24 2.04C0.24 1.72 0.28 1.308 0.36 0.804C0.36 0.787999 0.36 0.759999 0.36 0.719999C0.368 0.679999 0.372 0.655999 0.372 0.648C0.38 0.632 0.384 0.612 0.384 0.588C0.392 0.556 0.4 0.536 0.408 0.528C0.416 0.512 0.424 0.496 0.432 0.48C0.448 0.455999 0.464 0.439999 0.48 0.431999C0.496 0.424 0.516 0.416 0.54 0.408C0.564 0.4 0.592 0.396 0.624 0.396C0.656 0.388 0.692 0.383999 0.732 0.383999C0.86 0.383999 1.196 0.399999 1.74 0.431999C2.292 0.464 3.084 0.48 4.116 0.48C5.876 0.48 7.108 0.46 7.812 0.42C7.82 0.42 7.832 0.42 7.848 0.42C7.872 0.412 7.888 0.408 7.896 0.408C7.984 0.408 8.044 0.432 8.076 0.48C8.108 0.527999 8.124 0.571999 8.124 0.611999C8.124 0.668 8.136 0.836 8.16 1.116C8.184 1.396 8.196 1.552 8.196 1.584C8.196 1.784 8.184 1.912 8.16 1.968C8.136 2.016 8.084 2.04 8.004 2.04C7.94 2.04 7.896 1.992 7.872 1.896C7.808 1.664 7.752 1.508 7.704 1.428C7.656 1.34 7.552 1.264 7.392 1.2C7.232 1.136 6.988 1.104 6.66 1.104H5.1C4.908 1.104 4.788 1.144 4.74 1.224C4.7 1.296 4.68 1.512 4.68 1.872V2.46C4.68 3.532 4.672 4.476 4.656 5.292C4.648 6.108 4.644 6.628 4.644 6.852C4.644 6.964 4.64 7.108 4.632 7.284C4.632 7.452 4.632 7.568 4.632 7.632C4.632 7.976 4.688 8.204 4.8 8.316C4.904 8.412 5.02 8.488 5.148 8.544C5.276 8.592 5.384 8.62 5.472 8.628C5.568 8.636 5.648 8.656 5.712 8.688C5.776 8.72 5.808 8.772 5.808 8.844C5.808 8.932 5.788 8.988 5.748 9.012C5.708 9.036 5.632 9.048 5.52 9.048C5.424 9.048 5.212 9.032 4.884 9C4.556 8.968 4.324 8.952 4.188 8.952C4.092 8.952 3.896 8.968 3.6 9C3.312 9.024 3.1 9.036 2.964 9.036C2.668 9.036 2.52 8.972 2.52 8.844C2.52 8.764 2.544 8.712 2.592 8.688C2.64 8.656 2.732 8.632 2.868 8.616C3.012 8.592 3.104 8.576 3.144 8.568C3.416 8.504 3.568 8.344 3.6 8.088C3.68 7.384 3.72 5.872 3.72 3.552L3.708 1.404C3.708 1.252 3.664 1.16 3.576 1.128C3.488 1.088 3.228 1.068 2.796 1.068C2.236 1.068 1.812 1.084 1.524 1.116C1.244 1.148 1.08 1.18 1.032 1.212C0.984 1.236 0.928 1.288 0.864 1.368C0.792 1.464 0.732 1.572 0.684 1.692C0.644 1.804 0.616 1.9 0.6 1.98C0.592 2.052 0.568 2.116 0.528 2.172C0.496 2.22 0.444 2.244 0.372 2.244C0.284 2.244 0.24 2.176 0.24 2.04Z" fill="black"/>
</svg>
